<svg width="219" height="321" viewBox="0 0 219 321" fill="none" xmlns="http://www.w3.org/2000/svg">
<g opacity="0.3">
<path d="M546.6 30.8854C537.954 26.6822 529.907 19.957 520.06 19.0764C510.733 18.2758 487.555 21.198 480.029 27.4428C471.783 34.3281 468.38 45.2565 458.693 51.6213C448.605 58.2664 437.957 60.5882 426.188 56.9854C421.224 55.4643 416.781 51.9015 411.777 50.7006C405.732 49.2595 400.568 51.3011 394.604 51.8615C380.193 53.1825 368.864 49.6998 356.014 43.2549C341.403 35.8892 329.233 25.8015 316.023 16.3943C305.856 9.14877 293.846 5.3058 284.079 -2.46016C262.382 -19.6333 258.019 -47.855 258.459 -73.955C258.699 -87.4854 261.061 -102.017 257.579 -115.267C253.976 -128.917 244.048 -141.086 237.843 -153.776C226.955 -176.033 218.589 -199.411 216.987 -223.99C216.787 -224.03 216.587 -224.07 216.387 -224.11C205.178 -225.591 188.646 -225.111 150.777 -194.888C112.868 -164.705 65.271 -155.818 43.9347 -77.0373C16.6737 -46.0135 9.50828 -5.50247 10.3089 30.9655C10.3489 32.1264 10.3889 33.2473 10.429 34.4081C10.509 35.8092 10.5891 37.5706 10.7092 39.6121C10.7492 40.0525 10.7892 40.4528 10.7892 40.8931C10.8693 41.9339 10.9494 43.0948 11.0294 44.2556C14.2719 88.2094 27.5621 123.236 27.5621 123.236L39.6914 127.079L39.7314 156.662C39.7314 156.662 37.9701 199.134 86.5273 241.607C135.045 284.08 177.397 298.01 177.397 298.01L189.646 297.25L201.656 308.058C201.656 308.058 225.314 330.355 344.405 315.184C463.456 300.012 532.509 219.63 538.554 198.374C544.639 177.158 556.288 149.056 556.288 149.056C556.288 149.056 571.179 135.406 581.027 77.0409C583.108 64.7114 583.228 50.2203 582.027 34.9286C571.099 38.1711 559.33 37.0501 546.6 30.8854Z" fill="url(#paint0_radial_1_13607)"/>
<g opacity="0.87">
<path d="M556.088 145.493C555.127 145.573 553.326 146.494 552.325 146.654C550.164 147.014 548.402 147.535 546.401 148.375C542.998 149.776 539.475 150.777 536.073 152.178C531.709 153.98 529.548 158.543 525.545 160.745C523.263 161.986 520.901 163.026 518.459 163.947C514.496 165.468 510.733 167.31 506.77 168.871C499.805 171.633 493.08 174.916 486.274 177.958C479.99 180.8 473.144 182.401 467.1 185.524C463.377 187.445 459.414 189.767 455.371 191.088C448.205 193.41 439.639 193.21 433.914 187.846C430.632 184.763 427.549 180.96 425.108 177.197C423.306 174.435 420.944 171.753 419.423 168.791C418.262 166.509 417.422 163.707 416.661 161.225C415.98 158.943 415.38 156.702 414.74 154.42C413.659 150.377 414.7 147.174 416.141 143.331C416.941 141.17 417.742 138.928 419.023 136.967C420.944 134.044 423.306 131.762 424.907 128.6C428.31 121.875 430.151 114.349 433.114 107.424C436.156 100.378 440.239 92.9327 441.44 85.2869C442.521 78.2415 441.56 71.4762 439.799 64.671C439.278 62.6295 438.638 60.5879 437.997 58.5463C435.235 58.6264 432.393 58.3462 429.511 57.7457C429.951 60.3477 430.352 62.9497 430.992 65.4716C431.753 68.3939 433.554 71.3161 434.635 74.1183C436.676 79.2822 435.956 83.0851 434.675 88.3692C434.114 90.6509 433.274 92.8126 432.233 94.8541C429.871 94.654 428.55 94.6941 426.388 92.9328C421.985 89.33 419.143 82.7249 416.981 77.5209C415.38 73.6379 412.178 67.8335 408.095 66.0721C406.173 65.2315 404.692 64.5509 402.57 64.5909C399.328 64.671 396.646 63.5101 393.403 63.5902C387.879 63.7103 381.234 61.8689 377.031 58.5463C372.988 55.3038 367.944 53.3823 362.58 54.5833C360.018 55.1437 359.297 55.6641 356.855 54.7834C354.894 54.0629 353.413 53.1822 351.931 52.0213C352.372 49.4593 352.532 46.9374 352.892 44.3354C353.012 43.4948 353.172 42.6141 353.292 41.7735C351.251 40.6926 349.249 39.5318 347.328 38.3709C347.808 41.5733 347.688 45.2962 347.448 48.6587C346.968 48.7388 346.487 49.1391 345.847 50.0998C344.726 51.9012 344.486 54.5433 343.805 56.5448C343.205 58.2661 342.444 60.0274 342.004 61.8288C341.003 65.992 340.443 70.3153 339.522 74.4785C339.402 75.039 339.242 75.5594 339.122 76.1198C338.841 76.6002 338.561 77.1205 338.241 77.5609C331.075 87.8487 319.747 91.2114 308.498 94.9343C298.53 98.1768 288.643 101.339 278.875 105.102C274.512 106.783 270.109 108.104 265.705 109.545C260.701 111.187 256.058 113.428 251.294 115.63C241.727 120.114 231.719 123.556 222.392 128.48C217.869 130.882 213.946 133.364 210.023 136.686C205.579 140.449 201.096 144.732 195.932 147.495C194.451 148.255 192.969 148.816 191.488 149.216C190.608 148.135 189.046 147.054 188.166 146.494C184.923 144.412 180.72 143.131 177.237 141.41C171.793 138.728 165.589 135.045 163.067 129.12C161.906 126.358 161.065 123.356 160.785 120.434C160.545 117.632 159.384 114.869 158.503 112.107C157.622 109.305 156.341 106.823 154.94 104.221C154.1 102.66 153.179 101.459 152.138 99.9781C150.937 98.2167 150.457 96.1752 149.176 94.4939C148.215 93.2529 147.254 92.1321 146.374 90.8511C144.853 88.6494 145.093 88.6094 144.612 86.0074C144.012 82.6048 143.291 80.6833 144.052 77.0406C144.773 73.758 146.214 71.076 147.575 67.9536C148.415 65.9921 149.336 65.0713 150.657 63.5502C152.619 61.2684 153.419 58.3862 155.221 55.9844C160.024 49.4994 164.147 42.6141 166.589 34.8882C167.83 31.0452 169.031 27.3224 169.992 23.3994C170.873 19.9167 172.874 17.715 174.956 14.9529C177.277 11.9106 179.119 10.3093 183.002 9.38862C186.885 8.46791 190.568 7.98752 194.411 7.10684C198.213 6.22617 201.976 5.42557 205.779 4.62495C208.942 4.22465 212.024 3.62421 215.146 3.02375C218.589 2.74354 222.032 2.34322 225.474 1.82281C225.034 1.62267 224.674 1.50259 224.233 1.34247C225.314 1.18235 226.395 0.98217 227.476 0.822052C234.601 -0.0986557 241.567 0.862045 248.692 1.66266C254.617 2.30315 261.982 1.70274 267.587 -0.418892C271.43 -1.86 273.751 -3.9016 276.153 -7.14408C276.554 -7.70451 276.914 -8.26494 277.274 -8.82536C276.273 -9.9062 275.353 -10.987 274.472 -12.1479C272.831 -10.1464 271.029 -8.22491 268.708 -7.26417C264.344 -5.50282 259.501 -3.94163 254.857 -3.14101C251.815 -2.58058 248.852 -2.78071 245.77 -2.74068C241.166 -2.70065 236.563 -2.14023 231.959 -1.94008C221.912 -1.5798 211.944 -0.939323 201.936 0.301628C194.971 1.1823 188.006 1.66268 181.08 2.74351C172.554 4.10455 164.147 5.74583 155.541 6.26623C151.658 6.50642 147.855 6.38633 144.092 6.14614C143.812 5.50565 143.532 4.98523 143.371 4.74504C141.65 1.62265 139.769 -1.49973 137.967 -4.62213C131.843 -15.1902 125.318 -26.1186 115.43 -33.5643C111.947 -36.2063 108.024 -39.3688 105.062 -42.5712C101.94 -45.9338 100.979 -51.1378 101.019 -55.5412C101.139 -65.3087 101.059 -75.1162 98.8973 -84.6435C98.6171 -85.9645 98.457 -87.2855 98.3369 -88.5665C97.6163 -85.4041 97.0159 -82.2017 96.4955 -78.9592C95.2545 -70.6328 95.2945 -61.7459 97.9766 -53.6998C100.378 -46.5743 102.62 -39.3688 105.062 -32.2834C106.303 -28.6806 107.104 -25.4381 109.105 -22.1956C110.586 -19.7537 112.147 -17.552 113.909 -15.3103C116.671 -11.8277 119.673 -8.70528 122.315 -5.14255C123.917 -2.98089 124.317 -2.46045 124.277 0.341705C124.277 0.90213 124.197 1.66271 124.157 2.46333C123.556 2.26317 122.956 2.14306 122.355 1.94291C117.151 0.221588 112.147 -1.77998 107.624 -4.90237C103.861 -7.50437 100.338 -10.6268 96.7757 -13.4689C89.0097 -19.6337 82.2445 -26.1587 73.3978 -30.8022C71.156 -32.0032 68.9143 -33.0439 66.6326 -34.1247C63.3901 -35.6859 60.708 -37.5674 57.7457 -39.609C52.2215 -43.4119 48.1384 -47.7352 46.8974 -54.5404C46.0168 -59.184 46.2169 -63.7475 46.2169 -68.4311C46.2169 -70.7929 46.6973 -73.8753 46.2169 -76.2371C45.9367 -77.8383 45.4163 -78.719 45.4563 -80.5204C46.0168 -77.5581 39.772 -74.7959 40.2523 -71.9137C40.3724 -71.2332 41.6534 -69.632 41.8936 -68.7113C42.3339 -66.8699 42.334 -65.2286 42.414 -63.3472C42.4941 -61.5458 43.1346 -59.8645 43.2146 -58.0631C43.3347 -54.7406 43.735 -51.8584 44.6157 -48.6159C46.5772 -41.2903 50.5002 -35.766 56.825 -31.6429C62.0691 -28.2002 67.7134 -24.9577 72.5171 -20.9547C77.3608 -16.9116 82.4046 -13.0286 87.2083 -8.90544C91.932 -4.86234 96.1752 -0.458939 100.859 3.5041C104.662 6.74659 103.981 13.0714 106.783 17.1145C110.066 21.9182 115.03 23.7597 120.674 23.0391C127.199 22.1985 132.963 18.9159 138.728 15.9537C141.81 14.3925 144.572 12.2708 147.855 11.0699C152.538 9.34858 157.302 9.58875 162.186 9.30854C165.548 9.10839 168.871 8.78814 172.234 8.42786C171.753 8.94826 171.313 9.5087 170.873 10.1892C168.311 14.3524 167.71 18.5556 166.229 23.0791C164.388 28.6834 163.827 34.7681 161.906 40.3323C160.905 43.1345 159.023 45.6164 157.502 48.1383C155.861 50.8204 154.58 53.7026 152.739 56.2645C146.294 65.1914 136.206 75.1991 137.447 87.0882C138.488 96.9758 149.696 103.341 154.66 111.267C158.823 117.912 158.623 125.398 160.505 132.643C160.585 133.003 160.705 133.364 160.785 133.764C158.463 132.003 156.101 130.281 153.699 128.6C150.817 126.558 148.095 123.997 144.813 122.635C141.29 121.154 137.287 120.354 133.484 120.234C126.238 119.993 119.513 122.635 112.308 123.156C108.545 123.436 104.702 123.756 100.939 123.957C96.9358 124.197 93.0929 122.956 89.1699 122.395C85.447 121.875 81.6841 121.154 78.0013 120.314C73.5979 119.273 69.5548 117.111 65.0313 116.591C58.3462 115.83 51.3809 116.431 45.5764 120.074C43.9352 121.114 42.5741 122.435 40.8928 123.356C39.6119 124.077 38.3709 124.517 37.3701 125.638C39.0114 125.197 39.9721 126.639 40.8928 127.079C47.658 123.876 54.7034 121.435 62.3493 121.715C66.8728 121.875 71.5564 123.436 75.7996 124.997C80.4031 126.719 84.9666 128.4 89.5301 130.201C97.6964 133.404 105.743 130.441 113.909 128.64C120.154 127.239 125.998 126.038 132.483 126.238C140.089 126.518 146.574 129.721 152.338 134.645C157.502 139.048 160.745 144.372 164.908 149.576C167.75 153.099 171.033 156.502 175.276 158.223C180.88 160.505 189.207 159.063 194.371 156.501C203.377 152.058 212.104 147.334 220.35 141.61C230.398 134.685 240.606 127.679 251.334 121.915C259.22 117.672 267.547 114.229 275.953 111.147C286.001 107.424 296.529 105.182 306.777 102.1C314.543 99.7779 322.829 97.216 329.514 92.4924C330.235 91.972 330.915 91.4115 331.636 90.8511C331.636 90.8911 331.596 90.8912 331.596 90.9312C331.676 90.8512 331.716 90.8111 331.796 90.731C335.999 87.4084 339.522 83.4854 342.324 79.082C344.366 76.6802 346.447 74.2784 348.609 71.9166C350.771 69.5548 352.532 67.6733 355.374 66.1121C358.416 64.4308 360.578 64.671 363.981 64.671C370.386 64.671 376.59 65.992 381.994 69.7149C386.918 73.1575 392.122 75.9197 398.407 75.7996C408.255 75.5995 419.823 79.7626 422.385 90.1706C422.906 92.2122 423.306 94.2136 423.626 96.2152C423.826 97.5362 424.347 98.7372 424.587 100.058C424.787 101.339 424.427 102.62 424.627 103.901C424.667 104.261 424.747 104.662 424.827 105.062C418.863 111.347 411.337 116.471 404.732 121.274C397.606 126.438 389.921 130.882 384.316 137.767C381.754 140.929 379.633 144.452 376.911 147.495C374.429 150.297 371.226 152.739 368.344 155.1C358.576 162.986 348.048 169.071 336.72 174.435C331.796 176.757 327.032 179.439 322.109 181.801C317.745 183.922 314.102 185.724 310.78 189.367C308.138 192.249 305.936 195.411 303.654 198.614C300.332 203.257 296.809 207.901 294.247 213.065C292.886 215.787 293.046 218.469 291.965 221.151C291.285 222.792 290.724 224.474 290.044 226.115C289.043 228.517 287.642 229.838 286.041 231.839C283.759 234.601 281.798 237.604 278.915 239.805C275.913 242.087 273.231 245.29 269.949 247.091C266.746 248.812 263.584 249.773 260.101 250.654C249.653 253.296 239.005 252.295 228.397 251.014C221.792 250.213 215.307 251.574 209.142 253.856C203.578 255.938 200.615 257.899 197.733 263.303C196.412 265.745 194.931 268.067 194.05 270.709C193.21 273.351 192.889 276.113 192.409 278.795C191.769 282.398 191.048 286.001 190.127 289.523C189.607 291.525 189.207 293.206 190.127 294.968C190.728 296.129 193.37 298.651 194.731 298.57C195.812 297.249 195.772 294.888 193.37 294.007C194.931 282.198 198.494 269.188 209.182 262.663C210.703 261.742 211.784 261.262 213.465 260.661C215.066 260.061 216.347 258.94 217.949 258.42C220.711 257.499 223.353 256.138 226.395 256.058C228.797 256.018 231.239 256.058 233.641 256.058C235.842 256.058 238.124 256.178 240.326 256.098C243.808 255.978 246.611 254.176 249.893 253.416C252.575 252.775 255.457 252.935 258.179 252.655C262.303 252.175 266.186 252.055 270.149 250.814C279.636 247.892 286.841 241.046 291.845 232.6C293.887 229.117 295.288 225.314 297.249 221.792C299.411 217.949 301.092 213.825 303.294 209.983C305.656 205.859 308.498 201.856 311.781 198.414C313.782 196.292 316.024 194.651 318.306 192.929C321.628 190.407 324.871 187.405 328.313 185.123C338.241 178.558 349.77 173.955 360.898 169.832C367.623 167.35 374.389 164.828 381.274 162.946C387.959 161.105 395.084 159.144 402.01 158.943C406.653 158.823 412.978 159.464 415.02 164.468C415.78 166.309 415.86 168.471 416.461 170.392C417.382 173.314 418.663 176.677 420.224 179.319C428.59 193.53 445.763 196.372 460.655 192.449C466.98 190.768 473.144 188.606 479.069 185.804C485.794 182.641 491.999 178.598 498.444 174.916C508.972 168.911 519.62 163.547 531.069 159.544C535.232 158.103 538.995 156.181 543.078 154.58C544.439 154.06 546.12 152.578 547.521 152.298C550.083 151.818 551.805 155.18 552.205 157.382C554.006 157.142 554.847 152.779 555.247 151.377C555.608 150.257 556.128 149.376 556.568 148.375C557.569 146.734 558.29 145.293 556.088 145.493Z" fill="url(#paint1_radial_1_13607)"/>
</g>
<g opacity="0.5">
<path d="M194.61 282.237C195.171 280.115 195.611 278.034 196.772 276.192C198.013 274.231 199.214 272.389 200.575 270.468C202.577 267.706 204.578 264.943 207.38 262.902C210.102 260.9 213.425 259.379 216.507 258.058C217.628 257.578 219.55 256.657 219.95 255.416C220.35 254.175 219.59 252.974 218.469 252.494C217.708 252.174 216.667 252.174 215.827 251.973C215.066 251.813 214.306 251.813 213.545 251.973C211.864 252.294 210.142 252.934 208.541 253.495C207.741 253.775 207.06 254.055 206.219 254.255C205.339 254.495 205.058 254.936 204.338 255.336C203.497 255.816 202.857 255.857 202.136 256.537C201.616 257.017 201.175 257.618 200.615 258.138C199.174 259.459 198.333 261.581 197.573 263.342C196.892 264.983 195.971 266.505 195.571 268.266C195.091 270.348 194.53 272.109 194.53 274.271C194.65 275.712 194.13 277.513 194.61 282.237Z" fill="#A62551"/>
<path d="M191.208 149.895C188.246 150.816 185.083 151.937 182.721 154.018C181.721 154.899 180.039 155.9 181.721 157.021C183.082 157.981 185.564 158.021 187.125 157.781C188.926 157.501 191.048 157.141 192.689 156.34C197.293 154.178 202.016 152.697 206.379 149.975C208.501 148.654 210.663 147.373 212.824 146.052C214.346 145.131 216.067 144.731 217.588 143.81C218.989 142.97 220.35 142.169 221.631 141.168C223.072 140.048 224.513 139.247 225.754 137.846C226.715 136.725 227.676 135.604 228.597 134.403C229.517 133.202 231.078 131.481 231.078 129.88C231.078 127.878 229.557 127.918 228.036 127.878C224.914 127.838 222.192 129.479 219.67 131.281C217.988 132.482 216.587 133.883 214.826 134.924C213.745 135.564 213.105 136.044 212.224 136.885C210.503 138.526 208.581 140.208 206.66 141.609C204.578 143.13 202.577 144.651 200.335 145.852C197.092 147.613 194.21 149.815 191.208 149.895Z" fill="#A62551"/>
<path d="M142.65 74.0371C141.489 75.4382 140.648 76.519 140.008 78.1603C139.487 79.5613 138.847 80.9624 138.326 82.3634C137.486 84.7653 137.526 87.1271 138.847 89.2888C139.447 90.2495 140.008 91.2103 140.568 92.171C141.209 93.3319 142.089 94.2926 142.77 95.4135C143.01 95.8138 143.13 96.2541 143.37 96.6544C143.65 97.1348 144.131 97.455 144.451 97.8954C145.132 98.8161 145.572 100.097 146.413 100.858C146.733 101.178 148.054 101.939 148.494 101.698C148.814 101.498 149.015 100.537 149.015 100.137C149.055 98.9362 148.134 97.6552 147.573 96.6945C146.933 95.6137 146.332 94.4527 145.692 93.3719C144.211 90.7299 143.731 87.9677 143.29 84.9654C142.97 82.8038 143.01 80.7221 143.01 78.5605C143.05 76.9592 143.13 75.158 142.65 74.0371Z" fill="#A62551"/>
<path d="M158.983 118.43C158.983 120.752 159.143 122.914 159.384 125.196C159.584 126.797 160.064 128.278 160.384 129.799C160.665 131 160.945 132.201 161.225 133.402C161.305 133.722 161.665 134.443 161.545 134.723C161.465 134.923 160.825 135.323 160.625 135.483C159.944 135.964 159.624 136.044 159.384 137.005C159.143 137.965 159.344 138.726 159.664 139.647C160.825 142.849 162.186 145.891 164.588 148.373C165.268 149.094 165.789 149.975 166.469 150.695C167.11 151.336 167.91 151.816 168.631 152.376C169.912 153.337 171.113 153.737 172.634 154.178C174.195 154.618 176.157 154.418 177.638 153.738C179.199 153.017 179.679 151.336 179.759 149.734C179.839 148.373 179.519 146.852 178.518 145.851C177.398 144.691 175.796 144.53 174.595 143.53C173.474 142.569 172.033 141.568 170.712 140.848C170.192 140.567 169.552 140.527 169.071 140.167C168.471 139.727 168.11 138.806 167.59 138.246C166.549 137.125 165.588 135.844 164.948 134.443C164.307 133.082 163.347 131.841 162.706 130.48C161.986 128.998 161.545 127.237 161.065 125.636C160.825 124.795 160.545 123.995 160.304 123.154C160.224 122.514 160.184 121.473 158.983 118.43Z" fill="#A62551"/>
<path d="M118.031 121.835C118.832 122.155 120.953 122.435 120.513 123.516C120.193 124.277 119.072 124.717 118.431 125.037C117.431 125.558 116.55 126.278 115.469 126.679C114.428 127.079 113.347 127.239 112.347 127.719C111.386 128.16 110.345 128.48 109.304 128.76C108.384 129 107.543 128.96 106.622 129.12C104.22 129.601 101.899 129.801 99.4168 129.801C98.2158 129.801 97.1751 129.841 96.0142 130.121C94.9734 130.361 93.9326 129.961 92.9318 129.761C91.1705 129.441 88.8487 128.88 87.3676 127.919C85.286 126.598 83.2844 125.197 81.2429 123.836C80.2021 123.156 78.9211 122.796 77.8002 122.235C76.9195 121.795 75.5585 121.555 74.8779 120.794C75.5184 120.714 75.7587 120.394 76.4392 120.354C77.48 120.274 78.3606 120.434 79.2813 120.634C80.122 120.834 80.9226 120.834 81.8033 121.034C82.724 121.274 83.3645 121.555 84.2452 121.955C86.7671 123.036 88.9287 124.036 91.6508 124.477C92.1312 124.557 92.6115 124.437 93.0919 124.477C93.6924 124.557 94.2128 124.837 94.7732 124.877C95.774 124.997 96.8948 124.877 97.8956 124.877C100.017 124.877 101.979 124.717 104.06 124.517C106.742 124.237 109.224 123.516 111.826 122.996C113.908 122.555 117.551 120.914 118.031 121.835Z" fill="#A62551"/>
<path d="M131.282 121.834C130.202 121.674 129.161 121.514 128.08 121.394C127.88 121.514 127.68 121.594 127.439 121.714C126.158 121.995 124.837 122.435 123.636 122.955C122.796 123.316 120.754 124.356 122.355 125.197C122.836 125.437 123.917 125.237 124.437 125.237C125.358 125.237 126.078 125.117 126.999 124.957C127.92 124.797 128.6 124.637 129.481 124.196C130.402 123.756 130.602 123.355 131.282 122.595V121.834Z" fill="#A62551"/>
<path d="M40.2916 127.519C42.9736 126.278 45.5356 124.797 48.2577 123.516C51.5002 121.955 54.9429 121.074 58.5456 120.674C59.4664 120.554 63.3894 120.234 63.1091 118.833C62.8289 117.552 60.347 117.111 59.3863 116.831C57.1846 116.231 54.1823 116.271 51.9405 116.711C49.4186 117.192 46.9367 118.392 44.735 119.673C43.2539 120.514 41.9329 121.995 41.0522 123.436C40.4517 124.397 39.1707 126.639 40.2916 127.519Z" fill="#A62551"/>
<path d="M105.901 -33.6446C106.502 -31.4028 107.182 -29.2812 107.783 -27.0795C108.063 -26.0387 108.543 -25.078 108.904 -24.0372C109.384 -22.7963 110.185 -21.8756 110.825 -20.7147C111.786 -18.9533 113.027 -17.3921 114.228 -15.7909C115.549 -13.9895 117.31 -12.7085 118.791 -11.0673C121.033 -8.58535 124.035 -6.38364 125.236 -3.10112C125.837 -1.53992 125.637 0.261459 126.037 1.90272C126.677 4.50471 127.838 6.58631 129.76 8.46775C131.201 9.86883 132.482 10.3892 134.323 11.1097C135.644 11.6301 137.766 12.3907 139.167 11.8303C141.409 10.9096 140.928 6.06588 140.488 4.30453C140.008 2.38305 139.367 0.581669 138.366 -1.13965C137.766 -2.18045 137.165 -3.26125 136.525 -4.30205C135.724 -5.58303 134.643 -6.62387 133.843 -7.90485C132.602 -9.86636 131.441 -11.8679 129.76 -13.5091C128.279 -15.0303 127.278 -16.7916 125.957 -18.4329C122.995 -22.0357 119.992 -25.5584 117.35 -29.4413C116.069 -31.3228 114.788 -33.1242 112.627 -34.0849C111.225 -34.7654 108.623 -35.9663 105.901 -33.6446Z" fill="#A62551"/>
<path d="M123.315 5.78563C125.957 8.38762 130.04 12.3907 129.319 16.4739C128.879 18.9958 126.997 21.2775 124.796 22.5185C122.914 23.5993 121.113 23.2791 119.071 22.7587C116.309 22.0381 113.827 20.9173 111.426 19.4762C109.944 18.5955 108.904 16.714 108.023 15.313C106.502 12.9511 105.421 10.3091 103.94 7.86724C102.539 5.58549 101.018 3.62398 99.3763 1.54238C98.6558 0.621675 98.0953 -0.339033 97.3347 -1.17968C96.8544 -1.70008 96.374 -2.26054 96.0538 -2.90103C95.4533 -4.10195 95.8536 -5.1027 96.8944 -5.94334C97.7751 -6.66389 100.137 -6.42374 101.258 -6.22359C103.339 -5.82328 105.581 -5.18276 107.342 -3.94181C108.904 -2.86098 110.385 -1.86019 112.066 -0.979512C113.867 -0.0187755 115.389 1.26219 117.27 2.0628C119.752 2.98351 122.834 3.74406 123.315 5.78563Z" fill="#A62551"/>
<path d="M182.121 5.54561C180.28 7.30696 178.358 8.46787 176.437 10.0691C175.636 10.7496 174.955 11.5503 174.115 12.1507C173.674 12.471 173.234 12.5911 172.874 13.0314C171.793 12.8312 172.153 11.8705 172.033 11.0699C171.913 10.3093 171.433 8.94827 170.992 8.34781C169.711 6.5064 167.109 6.58641 165.068 6.54638C166.069 6.66647 166.469 6.22618 167.35 5.90594C169.351 5.22541 171.633 5.18536 173.714 4.94518C177.517 4.50484 181.28 3.26389 185.083 2.94364C185.924 2.86358 187.165 2.74349 188.005 2.94364C188.286 3.0237 189.487 3.34392 189.647 3.54408C190.047 4.14454 189.687 4.9452 189.206 5.34551C188.766 5.70578 187.845 5.82585 187.325 5.94594C185.724 6.42631 184.203 6.86665 182.681 7.50714L182.121 5.54561Z" fill="#A62551"/>
</g>
<g opacity="0.5">
<path d="M86.0475 9.06926C85.7273 1.3033 84.6864 -3.9407 78.7619 -9.42491C72.9574 -14.8291 64.8313 -15.6297 57.6658 -18.1516C49.8598 -20.9138 43.2547 -27.1985 39.4518 -34.4441C37.3301 -38.4872 37.7304 -43.7312 33.247 -46.2131C29.284 -43.6512 28.8436 -39.408 27.3625 -35.2448C25.3209 -29.3602 25.2809 -22.6751 24.6004 -16.5504C24.16 -12.7475 24.4803 -8.9846 24.4403 -5.14165C24.3602 -0.217876 23.1192 4.54579 23.3594 9.5096C23.7597 16.9553 25.6011 27.4434 31.3656 32.9276C35.889 37.2509 42.2539 39.1323 48.3386 38.2116C55.4641 37.1308 63.2701 34.5288 68.9144 30.0053C74.4386 25.682 77.9213 10.6705 86.0475 9.06926Z" fill="#FFBDB0"/>
<path d="M97.175 14.1535C93.6123 16.075 90.2497 17.0757 89.289 21.1989C88.9687 22.5599 88.8887 24.6015 89.0488 26.0426C89.5692 30.5261 93.3321 32.1273 97.4953 31.4067C102.419 30.6061 103.5 25.4422 104.581 21.1589C105.021 19.3975 105.622 17.7563 105.181 15.9149C104.541 13.1527 101.779 11.2713 100.217 9.06958L97.175 14.1535Z" fill="#FFBDB0"/>
<path d="M153.778 36.3714C149.775 46.0588 147.253 59.9094 137.646 65.7539C127.558 71.8786 123.395 53.6246 123.515 47.0195C123.675 40.6947 129.96 34.57 134.283 30.5269C136.645 28.3252 139.487 26.5638 141.729 24.242C143.851 22.0804 145.052 19.4384 147.574 17.637C149.855 16.0358 154.499 14.955 156.861 17.0366C161.865 21.48 154.779 31.3675 152.738 35.3306L153.778 36.3714Z" fill="#FFBDB0"/>
<path d="M136.607 95.0552C129.802 96.2962 123.517 97.6571 117.592 101.34C114.71 103.141 109.946 106.584 109.306 110.227C108.065 117.352 122.116 115.191 125.478 114.51C128.721 113.83 132.284 114.31 135.606 114.27C138.088 114.23 140.29 115.471 142.611 115.351C145.213 115.231 147.695 113.509 148.616 111.027C150.297 106.584 143.692 101.3 140.65 99.0983L136.607 95.0552Z" fill="#FFBDB0"/>
<path d="M162.906 69.7558C160.344 72.5179 156.862 74.9598 156.021 78.7627C155.301 82.0452 155.501 86.1283 156.381 89.3308C157.422 93.3739 159.304 96.9367 160.104 101.06C160.985 105.543 162.986 109.787 164.147 114.19C165.148 118.073 166.709 122.276 168.511 125.839C170.352 129.522 174.595 135.566 178.038 137.888C185.564 142.972 199.094 137.688 205.739 133.244C210.583 129.962 216.427 120.795 213.585 114.99C210.303 108.305 201.976 106.424 196.812 101.58C193.45 98.4177 191.008 96.2961 188.806 92.0929C186.925 88.5302 186.004 84.5272 183.962 81.0445C180.48 75.12 174.395 68.755 162.906 69.7558Z" fill="#FFBDB0"/>
<path d="M268.066 230.559C264.944 237.404 263.823 241.007 256.698 243.849C254.176 244.85 252.334 244.65 249.732 244.69C245.929 244.77 242.166 245.69 238.323 245.77C230.637 245.931 222.872 245.37 215.186 245.65C208.661 245.891 202.456 249.293 198.293 254.057C194.009 258.901 190.006 264.385 186.844 270.069C185.002 273.392 182.961 279.276 178.958 280.997C173.714 283.279 165.347 277.315 160.904 275.113C150.176 269.789 141.409 262.743 133.563 253.696C125.477 244.409 116.87 232.08 114.028 220.031C111.786 210.463 112.547 199.655 119.032 192.009C127.158 182.442 140.849 177.598 152.818 175.797C165.548 173.875 176.276 177.118 188.205 181.081C201.895 185.604 218.508 187.806 232.879 186.885C241.246 186.365 250.213 184.804 256.778 191.289C261.861 196.292 265.024 202.537 266.345 209.503C266.985 212.905 267.426 216.228 266.945 219.67C266.345 223.994 264.343 228.157 268.066 230.559Z" fill="#FFBDB0"/>
</g>
<g opacity="0.8">
<path d="M144.932 172.669C137.166 177.593 128.119 180.555 119.112 182.437C113.628 183.558 108.704 180.355 103.981 178.074C97.6557 174.991 91.0106 170.308 87.1676 164.223C83.725 158.819 81.2831 153.295 82.0437 146.77C82.5641 142.086 85.1661 138.483 89.9698 137.763C92.0514 137.442 94.2531 137.763 96.3747 137.763C99.1769 137.763 101.979 137.603 104.781 137.923C108.504 138.403 112.787 139.484 116.55 139.284C120.713 139.044 125.077 137.122 128.88 135.481C131.362 134.44 133.964 132.639 136.646 132.399C142.49 131.838 147.974 135.881 151.817 140.004C157.021 145.569 161.785 152.414 163.386 159.94C164.147 163.422 163.626 165.224 162.585 168.546C162.105 170.067 162.185 170.948 160.744 171.909C158.422 173.47 154.339 173.99 144.932 172.669Z" fill="#EABDB0"/>
<path d="M145.692 108.942C145.452 114.787 142.73 123.994 151.296 125.595C153.858 126.075 155.139 125.835 155.54 123.073C156.1 118.99 152.898 114.026 150.256 111.224L145.692 108.942Z" fill="#EABDB0"/>
<path d="M128.239 80.1195C126.237 85.0033 124.356 92.8892 120.233 96.452C115.509 100.495 107.783 104.018 101.699 105.019C97.5353 105.699 93.8125 104.979 90.1296 102.937C87.928 101.696 86.0865 100.495 84.3251 98.6537C82.6038 96.8123 81.0426 94.8108 79.2813 93.0094C76.5592 90.1272 73.8372 85.6838 73.5569 81.6407C73.3968 79.5991 73.3167 76.6369 73.8771 74.6754C74.5576 72.2335 76.279 70.1118 77.3998 67.8701C82.0434 58.543 89.329 47.7747 100.858 47.4544C108.223 47.2543 113.468 50.3367 118.271 55.6607C120.073 57.6623 121.434 59.2635 123.555 60.9848C125.477 62.546 126.678 63.8671 128.279 65.7485C129.68 67.3898 130.561 68.7508 130.601 70.9925C130.681 75.4359 129.64 80.5198 128.239 80.1195Z" fill="#EABDB0"/>
<path d="M119.912 32.3221C119.392 35.8048 118.791 41.6493 116.269 44.4514C114.868 45.9726 110.545 47.2135 108.463 46.8132C106.902 46.493 106.221 45.172 105.821 43.6908C105.141 41.2089 105.461 38.4468 105.461 35.8848C105.461 33.6431 105.061 31.1212 105.941 29.0796C107.102 26.3175 109.464 24.5162 112.426 24.0358C116.069 23.4353 118.231 26.1974 121.393 26.998L119.912 32.3221Z" fill="#EABDB0"/>
<path d="M278.433 93.7704C272.869 92.8898 267.344 92.9698 261.78 92.4494C258.137 92.0891 254.495 92.1291 250.852 91.4887C248.17 91.0483 246.208 90.2878 243.606 91.5287C237.682 94.3709 232.197 99.3748 227.634 103.938C222.95 108.582 220.148 114.106 219.348 120.711C219.228 121.792 218.907 122.913 219.988 123.393C220.869 123.793 223.511 122.673 223.911 122.512C229.555 120.151 234.279 115.867 239.923 113.465C245.728 110.984 251.492 109.182 257.537 107.461C260.739 106.54 263.301 105.339 266.184 103.658C270.067 101.376 271.868 99.3347 278.433 93.7704Z" fill="#EABDB0"/>
<path d="M44.8145 179.876C44.094 178.354 43.5335 177.634 43.6536 176.073C43.7737 174.391 43.9739 172.71 44.4142 171.069C45.3349 167.426 47.0963 164.384 48.7776 161.061C50.4589 157.819 52.4203 154.696 53.9415 151.374C55.3025 148.371 55.7028 145.169 55.1824 141.926C54.662 138.764 52.8607 135.722 52.7406 132.519C52.6605 129.997 53.3811 128.076 55.1424 126.274C55.863 125.514 56.5836 124.673 57.4242 124.073C58.2248 123.472 59.0655 123.352 59.9862 122.992C61.067 122.552 61.9476 121.791 62.9484 121.151C63.7891 120.59 64.8299 120.11 65.5104 119.349C68.0723 116.587 59.3056 115.026 57.8245 114.946C55.3026 114.826 52.3403 115.546 50.0185 116.467C47.6567 117.428 45.415 118.629 43.5736 120.39C42.2526 121.671 40.5713 122.512 39.4504 124.073C38.5297 125.354 39.3704 126.274 40.4112 127.115C41.0116 127.635 41.532 128.076 41.7722 128.796C42.2926 130.358 42.2125 131.959 41.8923 133.6C41.1717 137.003 40.0108 140.485 39.8507 143.968C39.7706 145.97 40.0508 148.011 39.8507 149.973C39.6906 151.734 39.4904 153.335 39.4904 155.137C39.4904 159.34 40.1309 163.343 41.0116 167.466C41.4119 169.388 42.0124 171.229 42.5328 173.11C42.853 174.311 43.2533 175.512 43.6136 176.713C43.9338 177.914 44.094 179.315 44.8145 179.876Z" fill="#EABDB0"/>
<path d="M153.778 -6.58496C152.337 -3.54263 150.936 -1.58112 148.614 0.860753C147.173 2.38192 144.571 4.58359 144.171 6.78528C143.93 8.18636 144.531 8.10632 145.652 8.06629C147.533 8.02626 149.375 8.14636 151.256 7.82612C153.658 7.42581 155.86 6.82536 158.341 7.02552C160.263 7.18564 162.184 7.90616 163.986 8.42655C165.427 8.86689 166.868 9.14711 168.309 9.42732C169.55 9.70754 170.751 10.268 171.992 9.98775C174.234 9.46735 176.595 8.5867 178.757 7.82612C180.639 7.1456 183.361 6.46509 184.882 5.02398C185.803 4.14331 186.483 2.98236 185.803 1.78144C185.042 0.460429 183.241 0.220284 181.88 -0.180023C179.838 -0.740453 177.676 -0.780484 175.555 -1.18079C173.433 -1.62113 171.792 -2.10148 169.87 -3.10225C167.989 -4.06298 165.827 -4.94368 163.786 -5.50411C161.024 -6.30473 158.742 -5.78435 153.778 -6.58496Z" fill="#EABDB0"/>
<path d="M192.208 296.285C191.488 291.242 190.647 287.038 191.928 282.195C193.249 277.071 194.49 272.267 197.252 267.744C199.654 263.821 201.816 259.737 205.538 256.895C207.58 255.334 210.742 252.292 213.464 254.293C215.266 255.654 215.106 258.617 215.546 260.498C216.467 264.821 217.107 269.305 219.709 273.028C221.431 275.47 223.072 277.871 225.033 280.073C227.355 282.675 229.116 285.958 231.758 288.279C238.964 294.524 249.132 297.046 257.738 300.569C260.861 301.85 263.903 303.171 267.026 304.372C268.707 305.012 270.628 306.093 271.909 307.414C273.35 308.895 275.912 312.738 275.072 314.9C273.43 319.023 265.424 317.502 261.982 317.502C254.496 317.502 247.29 316.581 240.005 315.26C236.602 314.62 233.039 313.819 229.597 313.419C228.036 313.218 226.554 313.259 224.993 312.978C223.632 312.738 222.471 312.458 220.99 312.458C219.509 312.458 217.948 312.578 216.427 312.498C214.866 312.418 213.905 311.657 212.424 311.417C210.542 311.097 209.101 311.657 207.22 310.737C206.459 310.376 205.138 309.696 204.498 309.215C202.816 307.975 201.535 306.013 200.254 304.412C199.053 302.931 198.013 301.249 196.732 299.848C195.571 298.447 193.329 297.326 192.208 296.285Z" fill="#EABDB0"/>
<path d="M60.748 -37.4488C69.1545 -30.5635 78.5617 -22.2372 90.0906 -22.2372C94.0536 -22.2372 99.3376 -23.6382 102.34 -26.5204C104.382 -28.522 103.861 -34.7267 106.223 -35.5273C108.865 -36.408 110.266 -31.8845 111.267 -30.4434C113.989 -26.5204 115.99 -22.3172 118.432 -18.194C122.996 -10.5081 130.361 -4.34341 133.084 4.38329C133.924 7.10537 135.325 9.3871 133.844 12.1092C132.763 14.0707 130.482 16.2324 128.32 16.9129C119.433 19.675 112.308 12.1492 106.463 6.98526C104.742 5.46409 104.181 3.94294 102.78 2.18158C101.379 0.420235 99.6579 -1.10093 98.2168 -2.82225C96.9358 -4.34342 95.3746 -5.62441 94.0936 -7.14558C92.6926 -8.78684 91.8119 -10.9085 90.0906 -12.2695C86.8881 -14.7914 83.0852 -16.3927 80.0429 -19.2349C74.7188 -24.0786 67.4332 -27.9615 60.748 -37.4488Z" fill="#EABDB0"/>
</g>
<path opacity="0.5" d="M574.021 36.5301C574.181 44.5362 574.021 52.5824 573.501 60.4684C569.458 120.154 541.836 149.337 541.836 149.337L533.31 157.943C533.31 157.943 538.514 156.622 539.154 161.306C539.835 165.989 527.826 233.441 415.62 277.075C303.373 320.668 206.379 305.416 201.856 301.974C197.292 298.571 196.812 276.194 196.812 276.194C196.812 276.194 194.65 282.279 178.958 280.998C163.266 279.717 107.063 236.764 84.7258 200.736C62.3887 164.708 50.6997 123.397 50.6997 123.397L42.1331 121.956C19.5558 113.829 12.9908 67.5539 11.0693 44.3361C14.3118 88.2898 27.602 123.317 27.602 123.317L39.7313 127.16L39.7713 156.742C39.7713 156.742 38.01 199.215 86.5672 241.687C135.084 284.16 177.437 298.091 177.437 298.091L189.686 297.33L201.696 308.138C201.696 308.138 225.354 330.435 344.445 315.264C376.59 311.181 405.092 302.294 429.71 291.165C496.201 260.982 534.19 213.986 538.594 198.454C544.679 177.238 556.328 149.136 556.328 149.136C556.328 149.136 571.219 135.486 581.067 77.1212C583.148 64.7918 583.268 50.3006 582.067 35.0089C579.425 35.7695 576.743 36.2499 574.021 36.5301Z" fill="url(#paint2_radial_1_13607)"/>
<path d="M10.8286 40.9728C10.9087 42.0937 10.9888 43.2145 11.0688 44.3354C10.9888 43.1345 10.9087 42.0136 10.8286 40.9728Z" fill="url(#paint3_radial_1_13607)"/>
<path d="M206.379 205.259C199.614 203.057 188.366 199.134 185.323 191.288C183.402 186.324 185.563 180.56 189.887 177.878C194.61 174.996 201.736 174.275 207.06 175.236C212.424 176.197 221.911 177.678 226.595 180.92C236.643 187.926 236.763 198.734 236.723 209.903C236.683 214.306 234.521 218.829 229.197 219.11C224.433 219.35 219.63 213.025 215.466 211.344L206.379 205.259Z" fill="url(#paint4_linear_1_13607)"/>
<path d="M177.556 50.5403C175.194 53.4225 171.672 56.5048 169.991 59.8674C168.87 62.0691 168.389 65.5518 167.829 67.9536C166.988 71.6365 165.587 78.4417 167.148 82.1245C170.551 90.1306 188.925 91.4917 195.85 88.6495C205.898 84.4863 210.902 72.9975 210.742 62.6696C210.622 54.4232 199.093 46.1369 191.207 47.4979L177.556 50.5403Z" fill="url(#paint5_linear_1_13607)"/>
<path d="M75.92 179.478C69.5952 178.878 64.5113 177.997 58.9871 180.879C54.3835 183.281 50.6206 185.963 47.218 190.006C41.1334 197.332 39.5321 207.219 43.4951 215.866C47.6984 224.953 52.1818 235.281 60.7083 241.446C68.3142 246.93 77.201 250.733 86.6082 250.813C95.1348 250.893 96.2556 243.367 98.6975 236.362C101.219 229.196 104.502 220.71 104.742 213.184C104.862 210.262 104.022 208.1 103.381 205.298C102.5 201.455 101.38 200.454 98.6174 197.732C95.6151 194.73 93.6536 193.729 89.9708 191.728C88.2094 190.767 86.7283 189.406 84.9269 188.525C82.9254 187.484 80.6437 187.244 75.92 179.478Z" fill="url(#paint6_linear_1_13607)"/>
<path d="M19.276 84.9267C15.3129 83.7258 12.6709 83.0051 9.70863 80.3231C7.10663 77.9613 5.50543 75.2793 4.10435 72.0368C2.74331 68.8744 1.22216 66.0722 0.501612 62.6696C-0.218941 59.347 0.0612329 55.9844 0.0212021 52.5818C-0.0588593 46.2169 1.062 38.1308 4.5847 32.7666C5.66553 31.1254 6.66634 28.8437 8.06741 27.4826C9.30837 26.2817 11.2298 25.7213 12.4307 24.3602C15.0728 24.9207 15.4331 31.8059 15.9535 34.0477C16.634 36.9699 16.9142 39.772 17.4346 42.6942C17.995 45.7766 19.1559 48.899 19.276 52.0214C19.3961 55.0237 20.3168 57.6257 20.2767 60.628C20.2367 63.7104 21.1574 66.2323 21.3176 69.1946C21.4377 71.9567 21.2375 74.6788 20.7571 77.3208C20.4769 79.2423 20.9573 83.6858 19.276 84.9267Z" fill="url(#paint7_linear_1_13607)"/>
<g opacity="0.5">
<path d="M201.336 65.1907C200.736 69.6341 200.336 74.3977 197.053 77.8404C195.812 79.1214 194.171 79.8819 192.49 80.3223C189.807 81.0428 187.045 81.8435 184.283 81.9236C181.761 82.0037 179.64 81.8435 177.518 80.4024C175.877 79.2815 174.516 77.9205 173.315 76.3593C172.634 75.4786 171.914 74.758 171.954 73.5571C171.994 71.8357 173.275 70.3146 174.916 69.7942C177.958 68.8735 180.08 70.1145 183.042 70.6349C185.844 71.1553 187.886 69.8342 189.687 67.7126C191.369 65.7511 192.449 62.6688 194.731 61.2277C197.854 59.2662 200.175 62.8289 201.336 65.1907Z" fill="#FFE2D9"/>
<path d="M192.729 54.0632C191.488 54.6637 190.608 55.5443 190.087 56.7052C191.689 58.4265 195.251 58.4665 196.532 56.3449C196.813 55.8645 197.013 54.8638 196.773 54.3034C196.332 53.2225 194.731 53.5428 193.73 53.5828L192.729 54.0632Z" fill="#FFE2D9"/>
<path d="M192.209 181.52C190.567 183.361 189.487 184.082 189.246 186.524C189.086 188.045 189.366 189.406 190.247 190.687C192.409 193.649 196.532 194.93 199.774 196.291C201.696 197.092 203.417 198.253 205.219 199.254C207.3 200.415 209.342 201.255 211.303 202.616C212.744 203.617 213.425 204.498 214.546 205.819C215.867 207.42 217.748 208.541 219.349 209.862C221.271 211.423 223.473 213.304 226.035 213.424C228.196 213.505 230.158 212.824 231.759 211.303C234.081 209.101 235.722 202.576 232.64 200.214C229.677 197.973 227.636 203.657 225.794 205.018C224.674 205.859 223.272 206.059 221.911 205.739C218.829 205.018 217.388 202.336 215.426 200.214C213.825 198.493 211.744 196.452 209.382 195.811C206.78 195.09 204.178 194.17 201.616 193.209C199.174 192.248 196.812 190.607 195.011 188.645C194.25 187.685 192.249 185.163 192.209 181.52Z" fill="#FFE2D9"/>
<path d="M69.3545 189.086C70.9157 190.687 71.6363 191.888 73.6778 192.409C75.8395 192.929 77.881 194.05 79.8825 195.011C83.4453 196.732 86.5277 199.014 89.2498 201.816C94.2536 206.98 95.0942 214.746 97.1758 221.351C97.5761 222.632 98.1365 223.713 98.2166 225.074C98.2967 226.515 98.2166 227.956 98.0965 229.397C97.7362 232.88 96.9357 235.922 94.2536 238.324C92.9726 239.485 91.2113 239.885 89.4499 239.685C87.3283 239.405 87.0881 237.483 87.0481 235.602C86.8879 230.398 88.289 225.514 88.6093 220.39C88.9695 214.906 84.2459 210.382 79.6023 208.301C78.2813 207.7 77.1604 206.74 75.7594 206.339C74.5184 206.019 73.4376 205.739 72.2767 205.259C69.5947 204.138 65.9519 203.777 63.8302 201.576C62.229 199.934 61.9888 198.253 62.5893 196.092C63.3499 193.69 65.2714 192.809 69.3545 189.086Z" fill="#FFE2D9"/>
<path d="M55.1835 195.171C53.262 196.091 51.5006 196.532 50.1796 198.213C48.9787 199.774 47.1373 201.856 46.6169 203.817C45.8563 206.66 48.8586 208.381 51.2205 207.3C54.0626 206.019 55.824 204.298 56.5045 201.256C56.7847 200.055 56.9048 198.894 56.5045 197.693C56.0641 196.332 55.2235 195.971 54.1827 195.171H55.1835Z" fill="#FFE2D9"/>
</g>
<path d="M167.429 69.7559C167.669 71.4372 167.429 73.5989 168.51 74.9199C169.27 75.8406 170.231 76.8813 171.072 77.722C172.793 79.4433 175.475 80.4441 177.797 81.1246C182.801 82.6057 187.725 82.7659 192.728 81.2848C195.17 80.5642 197.332 79.0029 199.213 77.3216C200.174 76.481 200.775 75.3202 201.695 74.3995C202.576 73.5588 203.617 72.7182 204.377 71.7975C205.138 70.8768 205.698 69.6358 206.379 68.595C207.139 67.4341 207.82 66.1932 208.42 64.9522C208.941 63.8314 209.902 62.3903 210.022 61.1893C211.983 61.4295 210.462 66.5134 210.342 67.4341C209.701 71.9176 208.901 76.441 208.14 80.8844C207.5 84.6873 205.858 89.451 203.216 92.3732C200.374 95.4956 194.81 96.2162 190.807 96.016C189.806 95.976 189.086 95.5357 188.165 95.2554C187.124 94.9352 186.203 95.0553 185.123 94.8952C182.721 94.615 180.519 94.4548 178.077 94.4548C175.435 94.4548 172.593 94.735 169.951 94.4548C167.789 94.2146 166.388 92.8536 164.987 91.3324C162.625 88.7304 162.745 84.9276 163.466 81.8052C164.026 79.4834 164.707 77.0816 165.508 74.7998C165.908 73.5989 166.588 72.478 166.949 71.237C167.309 70.1162 167.229 68.7551 167.429 69.7559Z" fill="#A62551"/>
<path d="M185.644 182.521C185.604 185.123 185.363 186.203 186.604 188.165C187.645 189.806 189.086 190.847 190.647 191.968C194.29 194.57 198.734 195.971 202.697 198.013C205.779 199.614 209.422 201.255 211.944 203.697C213.625 205.298 215.146 206.819 216.988 208.22C219.069 209.822 220.951 211.943 223.713 212.303C224.914 212.464 226.315 212.944 227.516 212.704C228.556 212.504 229.517 211.903 230.478 211.543C232.399 210.822 233.841 209.261 234.921 207.5C235.522 206.539 235.842 205.418 236.442 204.498C236.683 204.097 237.363 202.816 237.643 202.736C238.084 203.897 237.443 204.618 237.243 205.738C236.963 207.14 237.283 208.901 237.283 210.302C237.283 212.544 237.603 214.906 236.803 217.027C236.162 218.788 235.802 221.471 234.681 222.992C231.959 226.594 225.674 225.834 222.031 224.513C216.667 222.631 213.865 217.187 210.022 213.384C207.42 210.782 204.938 209.301 201.456 208.1C198.814 207.18 196.092 206.579 193.369 205.939C191.168 205.418 188.246 205.178 186.244 204.017C182.681 201.936 181.28 197.852 181.68 193.889C181.921 191.407 182.601 188.725 183.362 186.364C183.762 184.922 184.363 183.041 185.644 182.521Z" fill="#A62551"/>
<path d="M71.3555 246.731C75.0783 247.891 79.2815 250.213 83.3647 249.172C89.6495 247.571 93.4524 242.007 95.5741 236.202C96.2145 234.441 96.7749 232.64 97.4154 230.878C98.0559 229.037 98.2961 227.116 98.8966 225.274C99.9373 222.192 100.858 218.989 101.699 215.867C102.659 212.264 103.34 208.661 103.18 204.938C103.1 205.499 103.5 205.619 103.62 206.059C103.86 206.78 103.98 207.541 104.181 208.261C104.821 210.303 104.701 212.264 104.701 214.386C104.701 216.587 105.261 218.629 105.221 220.831C105.181 223.873 106.022 226.835 106.703 229.798C107.103 231.519 107.823 232.96 108.464 234.601C109.185 236.523 109.705 238.564 110.305 240.566C111.306 243.928 111.907 247.371 112.307 250.814C112.547 252.855 113.108 254.536 112.587 256.578C112.387 257.419 112.467 259.02 111.786 259.62C111.146 260.181 110.185 259.781 109.425 259.3C108.944 259.02 108.504 258.54 108.104 258.179C107.423 257.499 107.063 257.299 106.262 256.778C104.861 255.938 104.02 254.657 102.539 253.856C101.098 253.095 99.6972 252.215 98.216 251.454C97.0952 250.894 96.3747 250.333 95.494 249.493C94.4932 248.532 94.173 248.652 93.1722 249.573C92.5717 250.093 91.9713 250.614 91.1707 250.854C90.0098 251.214 88.8088 251.134 87.6079 251.334C86.8473 251.454 86.367 251.855 85.5664 251.895C84.9659 251.935 84.3654 251.895 83.805 251.895C82.3239 251.895 81.0429 251.694 79.6018 251.294C78.2407 250.894 76.7596 250.053 75.4386 249.533C73.9575 248.812 72.036 248.332 71.3555 246.731Z" fill="#A62551"/>
<path d="M165.427 13.3927C161.344 16.355 160.583 16.9154 158.582 20.7983C157.501 22.8799 156.38 24.8415 155.54 27.0432C154.859 28.8846 155.099 30.5259 154.619 32.3673C153.938 34.9292 153.778 37.6513 153.178 40.3734C152.818 42.0147 151.817 45.1371 154.419 43.0555C156.66 41.2141 157.061 37.3311 157.781 34.7291C158.902 30.686 160.463 27.5235 162.665 24.0809C163.746 22.3996 164.346 20.6783 164.867 18.7568C165.707 15.7945 165.227 14.7938 165.427 13.3927Z" fill="#FFBDB0"/>
<path d="M82.0036 53.583C79.2414 58.827 77.0398 63.6707 71.4355 66.3528C66.912 68.5144 60.5871 69.4351 57.1045 65.1518C54.6626 62.1495 55.183 58.1865 56.7842 54.904C58.1853 52.1018 60.1868 50.5807 62.3485 48.2989C64.39 46.1373 66.4316 43.5753 68.0328 41.0934C71.9959 34.8886 74.2776 27.6431 78.6409 21.6785C80.7225 18.8363 84.6856 17.2751 86.9273 20.998C87.9281 22.6392 87.3276 25.2413 87.3276 27.0426C87.3276 29.7647 88.0081 32.3267 88.0882 35.0488C88.1683 38.1712 89.049 41.3336 88.9289 44.456C88.7687 48.7392 85.6464 51.5414 82.0036 53.583Z" fill="#FFBDB0"/>
<path d="M154.818 190.089C153.177 192.772 152.336 195.654 152.296 198.696C153.577 199.297 154.378 200.337 155.779 200.818C158.501 201.738 160.142 200.057 161.944 198.216C163.185 196.975 164.386 196.014 163.785 194.173C162.905 191.491 159.622 191.611 157.861 190.13H154.818V190.089Z" fill="#FFBDB0"/>
<path d="M69.8733 144.614C68.0719 148.617 65.59 152.3 70.2736 155.103C71.9549 156.103 73.4761 156.303 74.717 154.622C76.4384 152.3 75.6778 143.494 71.8748 143.614L69.8733 144.614Z" fill="#FFBDB0"/>
<path d="M123.436 37.8877C122.875 36.5266 122.555 35.1656 122.435 33.7245C123.196 33.6845 124.837 30.1217 125.477 32.5636C125.998 34.5651 124.477 35.7661 123.956 37.4073L123.436 37.8877Z" fill="#FFC195"/>
<path d="M178.316 257.616C175.914 256.856 164.385 251.211 165.466 258.377C165.827 260.618 168.629 262.82 170.71 263.02C172.111 263.14 176.555 263.301 176.795 261.419L178.316 257.616Z" fill="#FFC195"/>
<path d="M216.428 -224.031C251.535 -198.932 289.484 -134.683 293.767 -126.116C298.05 -117.55 297.89 -70.3534 302.894 -49.9778C307.898 -29.6021 356.775 11.5895 356.775 11.5895C356.775 11.5895 399.768 15.1522 407.694 18.9551C415.62 22.758 423.907 29.2029 439.879 23.6787C455.811 18.1945 463.737 1.70184 487.476 -3.34203C511.214 -8.38589 564.214 -2.10104 582.068 34.9674C582.068 34.9674 572.621 48.2976 536.713 46.8965C500.806 45.4955 491.719 29.8435 482.352 32.6056C482.352 32.6056 457.893 61.4677 439.158 62.3084C420.424 63.1891 411.978 55.4231 393.323 55.0628C374.669 54.7426 351.051 43.654 324.551 28.1221C298.05 12.5902 272.991 -6.18416 262.783 -20.5552C252.535 -34.9262 254.537 -97.134 244.809 -130.48C235.122 -163.825 212.905 -181.839 216.428 -224.031Z" fill="url(#paint8_radial_1_13607)"/>
</g>
<defs>
<radialGradient id="paint0_radial_1_13607" cx="0" cy="0" r="1" gradientUnits="userSpaceOnUse" gradientTransform="translate(305.806 17.5671) scale(317.557 328.037)">
<stop stop-color="#F68425"/>
<stop offset="0.2749" stop-color="#F38125"/>
<stop offset="0.4972" stop-color="#EC7727"/>
<stop offset="0.7007" stop-color="#DE6629"/>
<stop offset="0.8651" stop-color="#CF522B"/>
<stop offset="0.9384" stop-color="#B23B3A"/>
<stop offset="0.9665" stop-color="#A63140"/>
</radialGradient>
<radialGradient id="paint1_radial_1_13607" cx="0" cy="0" r="1" gradientUnits="userSpaceOnUse" gradientTransform="translate(297.524 37.981) scale(260.305)">
<stop stop-color="#FFC2D1"/>
<stop offset="0.9944" stop-color="#C26B7F"/>
</radialGradient>
<radialGradient id="paint2_radial_1_13607" cx="0" cy="0" r="1" gradientUnits="userSpaceOnUse" gradientTransform="translate(296.955 127.009) scale(244.11 244.11)">
<stop stop-color="#FFC2D1"/>
<stop offset="0.9944" stop-color="#C26B7F"/>
</radialGradient>
<radialGradient id="paint3_radial_1_13607" cx="0" cy="0" r="1" gradientUnits="userSpaceOnUse" gradientTransform="translate(10.9491 42.6453) scale(1.19477 1.19451)">
<stop stop-color="#FFC2D1"/>
<stop offset="0.9944" stop-color="#C26B7F"/>
</radialGradient>
<linearGradient id="paint4_linear_1_13607" x1="210.7" y1="219.113" x2="210.7" y2="174.842" gradientUnits="userSpaceOnUse">
<stop offset="0.0112" stop-color="#560E0B"/>
<stop offset="1" stop-color="#731D08"/>
</linearGradient>
<linearGradient id="paint5_linear_1_13607" x1="188.59" y1="90.0114" x2="188.59" y2="47.3614" gradientUnits="userSpaceOnUse">
<stop offset="0.0112" stop-color="#560E0B"/>
<stop offset="1" stop-color="#731D08"/>
</linearGradient>
<linearGradient id="paint6_linear_1_13607" x1="73.0454" y1="250.807" x2="73.0454" y2="178.86" gradientUnits="userSpaceOnUse">
<stop offset="0.0112" stop-color="#560E0B"/>
<stop offset="1" stop-color="#731D08"/>
</linearGradient>
<linearGradient id="paint7_linear_1_13607" x1="10.7122" y1="84.9275" x2="10.7122" y2="24.4059" gradientUnits="userSpaceOnUse">
<stop offset="0.0112" stop-color="#560E0B"/>
<stop offset="1" stop-color="#731D08"/>
</linearGradient>
<radialGradient id="paint8_radial_1_13607" cx="0" cy="0" r="1" gradientUnits="userSpaceOnUse" gradientTransform="translate(402.324 -121.73) scale(249.551 257.787)">
<stop stop-color="#F6893D"/>
<stop offset="0.3644" stop-color="#F4863B"/>
<stop offset="0.6593" stop-color="#ED7C36"/>
<stop offset="0.9291" stop-color="#E26B2E"/>
<stop offset="1" stop-color="#DE652B"/>
</radialGradient>
</defs>
</svg>
